HIERARCHY
ROOT Hips
{
 OFFSET 0.000000 0.000000 0.000000
 CHANNELS 6 Xposition Yposition Zposition Yrotation Xrotation Zrotation
 JOINT Chest
 {
  OFFSET 0.000000 9.585900 0.002600
  CHANNELS 3 Yrotation Xrotation Zrotation
  JOINT Chest2
  {
   OFFSET 0.000000 9.601200 -0.005300
   CHANNELS 3 Yrotation Xrotation Zrotation
   JOINT Chest3
   {
    OFFSET 0.000000 9.561800 0.000000
    CHANNELS 3 Yrotation Xrotation Zrotation
    JOINT Chest4
    {
     OFFSET 0.000000 9.552100 0.000000
     CHANNELS 3 Yrotation Xrotation Zrotation
     JOINT Neck
     {
      OFFSET 0.000000 14.453000 0.000000
      CHANNELS 3 Yrotation Xrotation Zrotation
      JOINT Head
      {
       OFFSET 0.000000 8.936500 -0.011300
       CHANNELS 3 Yrotation Xrotation Zrotation
       End Site
       {
        OFFSET 0.000000 17.073600 -0.006000
       }
      }
     }
     JOINT RightCollar
     {
      OFFSET -2.921100 9.558500 0.000000
      CHANNELS 3 Yrotation Xrotation Zrotation
      JOINT RightShoulder
      {
       OFFSET -13.519700 0.000000 0.000000
       CHANNELS 3 Yrotation Xrotation Zrotation
       JOINT RightElbow
       {
        OFFSET 0.000000 -29.696600 0.000000
        CHANNELS 3 Yrotation Xrotation Zrotation
        JOINT RightWrist
        {
         OFFSET 0.000000 -24.004700 0.000000
         CHANNELS 3 Yrotation Xrotation Zrotation
         End Site
         {
          OFFSET 0.000000 -17.728500 0.000000
         }
        }
       }
      }
     }
     JOINT LeftCollar
     {
      OFFSET 2.921100 9.558500 0.000000
      CHANNELS 3 Yrotation Xrotation Zrotation
      JOINT LeftShoulder
      {
       OFFSET 13.519700 0.000000 0.000000
       CHANNELS 3 Yrotation Xrotation Zrotation
       JOINT LeftElbow
       {
        OFFSET 0.000000 -29.696600 0.000000
        CHANNELS 3 Yrotation Xrotation Zrotation
        JOINT LeftWrist
        {
         OFFSET 0.000000 -24.004700 0.000000
         CHANNELS 3 Yrotation Xrotation Zrotation
         End Site
         {
          OFFSET 0.000000 -17.728500 0.000000
         }
        }
       }
      }
     }
    }
   }
  }
 }
 JOINT RightHip
 {
  OFFSET -7.771700 -0.012900 -0.001300
  CHANNELS 3 Yrotation Xrotation Zrotation
  JOINT RightKnee
  {
   OFFSET 0.000000 -40.869800 0.001200
   CHANNELS 3 Yrotation Xrotation Zrotation
   JOINT RightAnkle
   {
    OFFSET 0.000000 -39.717900 0.002100
    CHANNELS 3 Yrotation Xrotation Zrotation
    JOINT RightToe
    {
     OFFSET 0.000000 -4.965400 11.033500
     CHANNELS 3 Yrotation Xrotation Zrotation
     End Site
     {
      OFFSET 0.000000 -1.423100 5.872300
     }
    }
   }
  }
 }
 JOINT LeftHip
 {
  OFFSET 7.771700 -0.012900 -0.001300
  CHANNELS 3 Yrotation Xrotation Zrotation
  JOINT LeftKnee
  {
   OFFSET 0.000000 -40.869800 0.001200
   CHANNELS 3 Yrotation Xrotation Zrotation
   JOINT LeftAnkle
   {
    OFFSET 0.000000 -39.717900 0.002100
    CHANNELS 3 Yrotation Xrotation Zrotation
    JOINT LeftToe
    {
     OFFSET 0.000000 -4.965400 11.033500
     CHANNELS 3 Yrotation Xrotation Zrotation
     End Site
     {
      OFFSET 0.000000 -1.423100 5.872300
     }
    }
   }
  }
 }
}
MOTION
Frames: 11
Frame Time: 0.008333
0.000000 85.388000 0.000000 0.000000 -5.767877 0.000000 0.000000 11.653817 0.000000 0.000000 -5.885947 0.000000 0.000000 -0.000000 0.000000 0.000000 -0.000000 0.000000 0.000000 12.528835 0.000000 0.000000 0.711642 0.000000 0.000000 -0.000000 0.000000 0.000000 0.000000 -90.000000 0.000000 -2.309062 0.000000 0.000000 2.309062 0.000000 0.000000 -0.000000 0.000000 0.000000 -0.000000 90.000000 0.000000 -2.309062 0.000000 0.000000 2.309062 0.000000 0.000000 8.520406 0.000000 0.000000 1.905762 0.000000 -0.000000 -4.658285 0.000000 0.000000 -0.000000 0.000000 0.000000 8.520406 0.000000 0.000000 1.905762 0.000000 -0.000000 -4.658285 0.000000 0.000000 -0.000000 0.000000
-80.682578 50.499664 -7.278736 164.775430 -10.845834 1.599055 2.758090 9.011893 1.885265 0.148380 0.507029 0.059491 0.257680 0.879277 0.103993 2.536614 8.354918 1.159535 13.239075 16.951555 -2.802875 25.361100 -2.657153 -9.494397 3.249648 4.479026 0.319817 -29.849033 -27.690432 -22.613798 -134.783272 -71.826575 138.420352 -6.367522 -10.782937 -25.103054 -3.444182 2.457320 0.208464 40.908321 -23.100246 13.772358 74.838151 -54.542381 -91.061057 4.009471 2.111427 -8.554157 -4.423369 -70.167490 -4.378400 -134.548789 82.361513 -132.818656 -3.388850 -16.395250 -1.505115 0.181574 0.790953 0.189723 -4.203120 -72.719783 20.599259 109.123536 78.426675 106.201922 -14.319283 -21.271689 -0.312644 -0.895725 -0.951343 -0.275932
-80.706902 50.507304 -7.271724 164.888872 -10.745647 1.576630 2.739450 9.035007 1.822249 0.149487 0.510500 0.057253 0.259475 0.885121 0.100153 2.543652 8.384036 1.120519 12.871312 16.952765 -2.778808 24.678286 -2.732038 -9.340821 2.986739 4.551276 0.237985 -29.983317 -27.077377 -22.387498 -131.262982 -72.872829 134.249173 -6.476855 -11.052687 -25.567577 -3.304507 2.569419 0.192460 41.316121 -22.918805 13.429548 72.194303 -54.079096 -87.739021 4.157716 2.087237 -7.932788 -4.522743 -70.260239 -4.335804 -134.294457 82.351099 -132.648310 -3.348220 -16.380951 -1.420323 0.114342 0.778279 0.141012 -4.210202 -72.834536 20.550221 109.041172 78.457179 106.091093 -14.407441 -21.258976 -0.286679 -0.853421 -0.943915 -0.230617
-80.735770 50.515872 -7.263863 165.015126 -10.627098 1.545066 2.702014 9.045695 1.763629 0.150101 0.514168 0.055262 0.260454 0.891289 0.096655 2.542685 8.415478 1.084764 12.499666 16.939714 -2.762442 23.992846 -2.830306 -9.202121 2.730994 4.593658 0.135395 -30.085787 -26.491995 -22.166050 -126.634515 -73.822550 128.953715 -6.601384 -11.310599 -26.075998 -3.167518 2.642006 0.177060 41.664673 -22.696854 13.170063 69.681052 -53.465695 -84.527917 4.348958 2.043373 -7.116956 -4.681884 -70.373814 -4.277695 -134.188925 82.354101 -132.584926 -3.340920 -16.361147 -1.390779 0.095661 0.759201 0.129562 -4.320359 -72.964260 20.566244 108.944992 78.463942 105.946840 -14.447083 -21.241636 -0.261866 -0.837634 -0.938976 -0.200283
-80.758539 50.525862 -7.260660 165.104385 -10.537441 1.460323 2.699851 9.088898 1.763471 0.150094 0.517678 0.053458 0.260412 0.897255 0.093475 2.532713 8.446842 1.051674 12.127739 16.913955 -2.750481 23.309936 -2.949175 -9.072934 2.481846 4.611913 0.011353 -30.145387 -25.937862 -21.941113 -120.804800 -74.599173 122.434962 -6.742222 -11.532220 -26.635675 -3.031220 2.680724 0.173578 41.896445 -22.377465 13.024589 67.447765 -52.734609 -81.528092 4.588211 1.968247 -6.161534 -4.930801 -70.442481 -4.063406 -133.927232 82.348907 -132.345986 -3.377190 -16.337737 -1.357846 0.124411 0.735585 0.122547 -4.600162 -73.062509 20.783635 108.913914 78.465293 105.894938 -14.478147 -21.243453 -0.261914 -0.882105 -0.947597 -0.197582
-80.794170 50.534480 -7.254017 165.240198 -10.401846 1.404029 2.634947 9.089526 1.719072 0.149417 0.520784 0.051689 0.259225 0.902590 0.090389 2.513393 8.476417 1.019508 11.757505 16.878161 -2.739715 22.631575 -3.084309 -8.947391 2.233717 4.606335 -0.134760 -30.133773 -25.410198 -21.705611 -113.794496 -75.119646 114.701649 -6.897625 -11.699190 -27.262996 -2.893136 2.692690 0.187983 41.961110 -21.914489 13.010560 65.615399 -51.924976 -78.823758 4.868752 1.843083 -5.119342 -5.020390 -70.544861 -3.989572 -133.347737 82.322540 -131.837367 -3.416591 -16.359568 -1.247189 0.112013 0.775464 0.132834 -4.853711 -73.212884 20.922021 108.871243 78.462591 105.776601 -14.469904 -21.203501 -0.187195 -0.850772 -0.976809 -0.230076
-80.834920 50.542186 -7.249790 165.380389 -10.265513 1.348014 2.554303 9.093076 1.667152 0.148138 0.523623 0.049887 0.256967 0.907447 0.087213 2.484972 8.505178 0.986721 11.388993 16.832722 -2.727559 21.956969 -3.235688 -8.820440 1.983021 4.569862 -0.298291 -30.036107 -24.904113 -21.455974 -105.820751 -75.285868 105.975543 -7.068742 -11.807106 -27.973357 -2.750898 2.677092 0.226530 41.846020 -21.284963 13.123048 64.246316 -51.076275 -76.481015 5.173490 1.673087 -4.046885 -5.187702 -70.659378 -3.893374 -133.035120 82.313061 -131.584724 -3.434774 -16.367459 -1.175208 0.096419 0.791906 0.140834 -5.160474 -73.364959 21.097878 108.875434 78.453305 105.695229 -14.438286 -21.161142 -0.156658 -0.850684 -1.036671 -0.272422
-80.874735 50.548608 -7.248933 165.500016 -10.142292 1.262900 2.487870 9.115381 1.640589 0.146317 0.526332 0.048008 0.253789 0.912055 0.083953 2.448585 8.533755 0.952744 11.023243 16.777705 -2.711969 21.287229 -3.403347 -8.688561 1.732952 4.501028 -0.469427 -29.871583 -24.420396 -21.186663 -97.400923 -74.997090 96.818030 -7.261398 -11.854702 -28.786858 -2.603258 2.627498 0.288889 41.573882 -20.487150 13.336820 63.325866 -50.231223 -74.520559 5.488583 1.487056 -3.043209 -5.417370 -70.754796 -3.715449 -132.739977 82.305180 -131.330083 -3.456972 -16.378904 -1.153868 0.097627 0.802889 0.173540 -5.577763 -73.497108 21.401209 108.920762 78.441240 105.663572 -14.380925 -21.152408 -0.200712 -0.887382 -1.045689 -0.226180
-80.918666 50.553026 -7.250903 165.610678 -10.021120 1.175495 2.420626 9.145124 1.607984 0.144104 0.528992 0.045997 0.249907 0.916545 0.080468 2.406158 8.562392 0.916437 10.661537 16.714202 -2.690854 20.623796 -3.585423 -8.548235 1.486437 4.410699 -0.638224 -29.669959 -23.967098 -20.893797 -89.242637 -74.200246 87.969342 -7.475830 -11.837648 -29.714888 -2.452653 2.544412 0.372147 41.193307 -19.535480 13.615999 62.778768 -49.423877 -72.925145 5.796252 1.298865 -2.192493 -5.639177 -70.848869 -3.542441 -132.486686 82.299260 -131.100305 -3.514872 -16.387971 -1.121799 0.135349 0.808769 0.192608 -5.978726 -73.619138 21.704755 108.965747 78.445804 105.638236 -14.395192 -21.176130 -0.188154 -0.903091 -1.028227 -0.218974
-80.969845 50.554832 -7.254549 165.737606 -9.890372 1.099851 2.328038 9.168513 1.550099 0.141733 0.531595 0.043730 0.245732 0.920897 0.076537 2.361016 8.590861 0.875887 10.303327 16.643623 -2.663636 19.965252 -3.779513 -8.397764 1.241692 4.309093 -0.799832 -29.458167 -23.545619 -20.587985 -81.953123 -72.907047 80.030870 -7.717135 -11.774881 -30.722492 -2.308024 2.436882 0.476509 40.772194 -18.459619 13.915382 62.501130 -48.682956 -71.667079 6.080357 1.111997 -1.514031 -5.864831 -70.959160 -3.388899 -132.317386 82.296115 -130.981315 -3.553755 -16.397903 -1.067199 0.140155 0.814908 0.199224 -6.601242 -73.774664 22.151554 109.230351 78.397516 105.789902 -14.307823 -21.100934 -0.194601 -0.999614 -1.115041 -0.235070
-81.022481 50.554600 -7.263389 165.850814 -9.777691 1.016470 2.245746 9.211880 1.494694 0.139317 0.534105 0.041140 0.241532 0.925193 0.072066 2.315364 8.618968 0.830123 9.948769 16.566872 -2.630866 19.311768 -3.983861 -8.237830 0.998318 4.196492 -0.951869 -29.264739 -23.137282 -20.290585 -75.894040 -71.192646 73.367399 -8.003293 -11.712994 -31.757190 -2.175222 2.320737 0.598460 40.385832 -17.303497 14.182898 62.389502 -48.039718 -70.716726 6.330097 0.944650 -0.985950 -6.164363 -71.058978 -3.163541 -132.294251 82.299635 -131.042622 -3.546913 -16.389194 -0.991084 0.094491 0.801177 0.182299 -7.208707 -73.909462 22.585872 109.442540 78.330087 105.923451 -14.231947 -21.053049 -0.230270 -1.002443 -1.182303 -0.234606
